<mxfile host="app.diagrams.net" modified="2023-11-15T14:29:06.387Z" agent="Mozilla/5.0 (Windows NT 10.0; Win64; x64) AppleWebKit/537.36 (KHTML, like Gecko) Chrome/118.0.0.0 Safari/537.36 Edg/118.0.2088.69" version="22.1.1" etag="n17E91iczB8mO5CDaiVC" type="github">
  <diagram name="Page-1" id="ITsrPc8U3nd3HmOz6KBZ">
    <mxGraphModel>
      <root>
        <mxCell id="0" />
        <mxCell id="1" parent="0" />
      </root>
    </mxGraphModel>
  </diagram>
</mxfile>
